HIERARCHY
ROOT Hips
{
  OFFSET 279.157 85.6768 304.565
  CHANNELS 6 Xposition Yposition Zposition Zrotation Xrotation Yrotation
  JOINT LeftUpLeg
  {
    OFFSET 8.64259 1.95398 -2.38835
    CHANNELS 3 Zrotation Xrotation Yrotation
    JOINT LeftLeg
    {
      OFFSET 43.7702 0 0
      CHANNELS 3 Zrotation Xrotation Yrotation
      JOINT LeftFoot
      {
        OFFSET 40.6238 0 0
        CHANNELS 3 Zrotation Xrotation Yrotation
        JOINT LeftToeBase
        {
          OFFSET 12.7242 0 0
          CHANNELS 3 Zrotation Xrotation Yrotation
          End Site
          {
            OFFSET 0 0 0
          }
        }
      }
    }
  }
  JOINT RightUpLeg
  {
    OFFSET -8.2249 1.95398 -2.59336
    CHANNELS 3 Zrotation Xrotation Yrotation
    JOINT RightLeg
    {
      OFFSET 43.5653 0 0
      CHANNELS 3 Zrotation Xrotation Yrotation
      JOINT RightFoot
      {
        OFFSET 40.6238 0 0
        CHANNELS 3 Zrotation Xrotation Yrotation
        JOINT RightToeBase
        {
          OFFSET 12.7242 0 0
          CHANNELS 3 Zrotation Xrotation Yrotation
          End Site
          {
            OFFSET 0 0 0
          }
        }
      }
    }
  }
  JOINT Spine
  {
    OFFSET 0.165834 0.87714 6.61349
    CHANNELS 3 Zrotation Xrotation Yrotation
    JOINT Spine1
    {
      OFFSET 7.38963 1.71661e-005 0
      CHANNELS 3 Zrotation Xrotation Yrotation
      JOINT Spine2
      {
        OFFSET 11.9445 1.14441e-005 0
        CHANNELS 3 Zrotation Xrotation Yrotation
        JOINT Spine3
        {
          OFFSET 14.7254 4.19617e-005 0
          CHANNELS 3 Zrotation Xrotation Yrotation
          JOINT Spine4
          {
            OFFSET 10.9679 0 0
            CHANNELS 3 Zrotation Xrotation Yrotation
            JOINT RightShoulder
            {
              OFFSET 2.46616 -1.6653 3.69651
              CHANNELS 3 Zrotation Xrotation Yrotation
              JOINT RightArm
              {
                OFFSET 13.0012 0 0
                CHANNELS 3 Zrotation Xrotation Yrotation
                JOINT RightForeArm
                {
                  OFFSET 28.7848 1.52588e-005 0
                  CHANNELS 3 Zrotation Xrotation Yrotation
                  JOINT RightHand
                  {
                    OFFSET 26.5688 1.52588e-005 0
                    CHANNELS 3 Zrotation Xrotation Yrotation
                    End Site
                    {
                      OFFSET 0 0 0
                    }
                  }
                }
              }
            }
            JOINT LeftShoulder
            {
              OFFSET 2.38034 -1.29275 -3.7523
              CHANNELS 3 Zrotation Xrotation Yrotation
              JOINT LeftArm
              {
                OFFSET 16.3182 6.10351e-005 0
                CHANNELS 3 Zrotation Xrotation Yrotation
                JOINT LeftForeArm
                {
                  OFFSET 27.0901 0 0
                  CHANNELS 3 Zrotation Xrotation Yrotation
                  JOINT LeftHand
                  {
                    OFFSET 24.5451 1.52588e-005 0
                    CHANNELS 3 Zrotation Xrotation Yrotation
                    End Site
                    {
                      OFFSET 0 0 0
                    }
                  }
                }
              }
            }
            JOINT Neck
            {
              OFFSET 5.0226 -0.0266342 0
              CHANNELS 3 Zrotation Xrotation Yrotation
              JOINT Head
              {
                OFFSET 6.69364 2.86102e-005 0
                CHANNELS 3 Zrotation Xrotation Yrotation
                End Site
                {
                  OFFSET 0 0 0
                }
              }
            }
          }
        }
      }
    }
  }
}
MOTION
Frames:	19
Frame Time:	0.0416667
-266.691 88.6341 247.394 95.3322 45.1469 100.082 -165.888 -27.348 98.7973 -11.2789 -0.594526 1.85106 81.5371 15.6077 -0.378851 37.2484 2.0241 16.9991 174.126 30.8061 105.161 -34.7282 -18.7363 7.13929 63.7314 -1.31838 -0.608256 16.5323 3.14889 4.52193 -1.47596 7.73554 -92.2173 11.3184 -3.96988 -4.02004 -0.352201 -4.14285 -3.84155 -22.8616 -2.5799 -5.02554 -2.84895 -2.5799 -5.02554 91.586 -34.4682 -102.191 37.6006 5.47708 14.0314 3.82897 -0.0185913 0.00203673 -14.0062 0.706507 -11.8159 -91.0192 -56.4947 78.6207 -22.945 8.19974 -16.8553 1.29917 12.1336 -5.30031 11.7357 1.05308 4.85244 -8.71488 6.69273 -1.69403 -5.05238 6.52572 10.5272 
-260.949 87.8976 241.237 96.9523 42.0567 100.467 -165.232 -23.1371 100.078 -27.3202 -0.498193 1.62944 71.9571 7.94532 -0.208526 43.5224 6.52441 19.7991 174.342 29.4803 108.128 -45.5627 -20.4296 5.67361 69.9153 -5.7655 -2.35318 20.9743 1.68949 4.9745 -1.04903 7.64992 -92.4967 11.4854 -3.25341 -4.64245 -0.189263 -3.45437 -4.49509 -22.6695 -1.71013 -5.40353 -2.65684 -1.71013 -5.40354 89.7678 -33.9725 -105.758 36.6764 3.90002 12.0081 5.16066 -0.777871 -0.170902 -14.1879 0.724423 -12.3167 -91.6821 -59.3185 78.2917 -24.7147 12.9716 -12.5003 -2.55148 5.04604 -0.47615 8.00422 0.416952 1.48951 -9.60809 6.85363 3.91061 -5.24598 6.41151 8.17376 
-255.938 87.4125 235.779 99.4222 41.8917 98.1006 -166.16 -11.7846 101.713 -52.8646 12.2591 2.67235 59.8804 -0.0308859 -0.280402 23.0696 -6.2117 9.66346 174.577 25.1699 107.31 -52.0026 -21.4302 4.93904 75.7364 -10.1965 -4.70003 21.2862 1.17379 7.0938 -0.852 7.77748 -92.4522 11.2387 -2.83617 -4.60358 -0.436779 -3.03584 -4.47461 -22.9141 -1.32366 -5.24141 -2.90149 -1.32365 -5.24141 90.1636 -32.7754 -105.428 35.4724 2.32542 7.47729 5.62084 -2.44831 -1.31833 -18.3659 0.470275 -9.34405 -91.6744 -60.4623 78.533 -24.6338 11.7521 -8.12298 -2.1233 3.56874 0.259138 5.6696 0.747672 7.3472 -7.44364 6.99043 8.61101 -5.18242 6.17868 5.54739 
-251.864 88.2381 231.483 99.3188 43.7841 96.8957 -170.375 4.70737 100.553 -78.6381 21.4944 4.95845 57.29 -1.76964 -0.890687 12.6375 -10.9906 4.93786 174.911 20.7671 106.008 -52.2889 -20.6956 4.35867 78.8367 -12.6556 -5.40171 20.9724 1.44568 6.17643 -0.407403 7.76696 -92.1773 11.2861 -1.82441 -4.15422 -0.389949 -2.00534 -4.0701 -22.8729 -0.493014 -4.50972 -2.8603 -0.493017 -4.50973 90.3847 -31.3427 -105.503 35.8734 3.1901 3.13196 4.55147 -1.41404 -2.95216 -20.0964 0.629701 -9.58144 -89.9883 -57.7561 80.2923 -23.4431 7.38608 -5.11175 0.497393 4.90568 -2.55963 7.36849 0.730781 5.33461 -3.6636 5.17904 8.52171 -5.30581 4.13232 3.78713 
-248.069 90.9787 227.41 99.4436 45.2509 93.0048 -174.139 20.0162 95.3388 -91.6193 10.8405 5.03595 59.2947 -0.0107927 1.30877 7.41472 -13.8483 3.83374 175.076 13.9344 101.723 -46.71 -19.6163 3.47616 78.2925 -12.1917 -4.3346 22.518 0.89029 6.76899 0.217367 7.84885 -91.5876 11.1613 -0.304878 -3.13027 -0.513329 -0.442278 -3.11386 -23.019 0.64953 -3.07733 -3.00637 0.649543 -3.07734 90.6066 -28.6178 -106.071 37.0972 3.84208 -0.266676 3.8712 0.0239352 -3.15883 -22.3688 0.627994 -8.7268 -89.4818 -56.583 80.7779 -19.0976 4.85631 -7.27801 2.01617 8.2471 -3.54706 8.17329 0.973681 7.12278 -3.66977 1.78446 7.05708 -4.45802 0.980477 1.52614 
-244.01 95.9235 223.258 103.194 45.5839 85.244 -174.823 27.6212 89.0339 -90.5014 0.422933 4.58676 64.135 3.22333 3.25598 2.42654 -16.7779 3.29181 174.965 4.43313 96.4629 -38.216 -22.0473 1.54979 67.6075 -5.60487 -4.67322 28.1651 -1.17633 10.356 0.841595 8.25164 -90.7895 10.3769 1.31506 -1.68486 -1.2945 1.23967 -1.74111 -23.83 1.76062 -1.21177 -3.81737 1.76061 -1.21178 89.325 -29.8301 -108.162 34.9963 3.18558 -0.868824 4.34245 -3.70076 -4.85797 -26.2037 0.353825 -7.7135 -89.7461 -55.0809 80.1264 -16.6294 2.70305 -8.94784 3.19831 8.25947 -4.13506 7.8504 0.756371 5.0604 -8.36077 -1.48339 0.658226 -2.2813 -1.54711 1.61818 
-239.718 100.627 219.037 105.226 44.7645 79.8631 -176.427 30.8037 84.4533 -81.629 0.167182 3.92538 68.0774 5.31475 3.43269 6.1537 -15.5833 5.59632 176.83 -0.404559 93.5562 -33.4259 -20.8097 -1.90033 55.9921 2.19319 -0.874644 22.7034 0.241371 10.5553 1.21008 8.53078 -90.1142 9.81792 2.3604 -0.413285 -1.85096 2.33992 -0.516831 -24.4033 2.3754 0.315632 -4.39068 2.37542 0.315635 89.3941 -28.5274 -108.569 36.4067 1.5201 -2.60932 5.00324 -4.22433 -5.95381 -23.7045 1.00078 -11.3854 -89.585 -52.0594 79.7659 -16.5927 2.49758 -7.82183 3.61466 11.9963 -5.51279 4.81401 0.54792 5.61708 -14.095 -2.43523 -4.8555 -0.334123 -2.35011 0.391166 
-235.224 103.632 213.934 104.138 40.4657 77.8603 -176.478 31.1995 81.9502 -70.1292 4.88172 2.31982 73.7568 8.98583 2.70423 6.11317 -14.5435 3.55739 177.901 -2.19456 91.5822 -34.058 -25.6028 -4.89765 52.8389 4.0499 1.18293 19.0231 1.86472 6.88227 1.63266 8.5871 -89.6109 9.69571 3.43067 0.501783 -1.97076 3.44944 0.350119 -24.5364 3.12114 1.51057 -4.52378 3.12115 1.51057 89.1565 -27.3952 -109.525 38.018 0.0205342 -4.27453 4.97112 -4.45257 -6.62559 -21.3431 0.953677 -11.8639 -89.7796 -53.1388 79.6983 -13.6847 4.38157 -3.9407 2.45056 12.7594 -6.89331 6.11665 0.82175 7.53297 -18.3707 -2.17328 -5.27104 1.39164 -2.34002 -1.26413 
-231.062 105.033 208.701 102.023 39.356 78.5839 -179.366 31.3968 80.8407 -56.7711 5.14855 2.47459 76.6684 10.523 1.54988 10.5277 -11.8276 3.75283 176.028 -4.09175 90.6526 -25.7691 -28.8634 -2.85573 52.2809 4.27255 4.66597 26.4584 0.481665 2.09256 1.65825 8.47592 -89.4162 9.91056 3.5701 0.868661 -1.75567 3.60489 0.710497 -24.3207 3.14387 1.90235 -4.30803 3.14388 1.90234 88.6489 -28.0885 -110.253 38.3321 -1.54443 -6.20442 5.34062 -5.275 -6.35385 -22.9587 0.859798 -11.1028 -89.5828 -54.6365 80.2734 -13.7384 4.31928 -2.32284 1.127 11.7569 -3.66568 8.50369 1.0987 8.07334 -18.4958 -2.13791 -5.02604 0.103924 -2.28922 -0.872779 
-226.635 104.529 203.466 100.316 39.1694 79.9094 178.585 30.3078 80.4877 -42.4544 2.09309 2.74158 76.2882 10.7005 2.50724 13.2295 -8.98822 1.05991 175.388 -4.72169 91.6655 -19.804 -19.8996 -0.803782 56.6126 1.7897 2.84686 21.6757 2.21335 1.1681 1.57495 8.33905 -89.428 10.1853 3.39916 0.847375 -1.4814 3.43317 0.69678 -24.0434 2.98724 1.83054 -4.03077 2.98726 1.83054 88.279 -28.1376 -110.976 39.8083 -1.8668 -6.84149 5.26528 -4.79397 -6.74689 -24.0245 0.610315 -9.42888 -88.3685 -54.9597 82.0592 -16.789 5.0886 0.291112 0.884578 9.45114 -3.59855 8.11869 0.975366 7.2035 -18.3374 -2.22571 -2.77354 -0.682812 -2.33543 -2.22852 
-222.101 102.169 198.347 98.4857 37.8944 80.6559 178.827 29.0323 80.494 -29.1201 1.80728 1.17793 78.0937 11.8937 -0.642677 13.454 -11.78 7.85654 175.031 -3.62145 91.5843 -19.1711 -10.4664 0.12435 58.6505 0.97815 1.38247 24.3345 0.423032 7.12699 1.6481 8.2366 -89.3673 10.3881 3.57298 0.944452 -1.27822 3.61108 0.786085 -23.8424 3.12384 1.97545 -3.82978 3.12385 1.97545 88.0475 -27.8549 -111.573 41.8232 -2.1121 -7.08231 5.42323 -4.1885 -6.74068 -24.7686 0.807618 -10.0929 -87.2258 -55.1674 83.7156 -21.056 6.01689 3.54486 1.02843 3.00677 -6.78118 11.0355 1.3988 8.34429 -17.0172 -2.26811 -1.06974 -1.50972 -2.31445 -3.83152 
-217.935 98.1561 192.998 97.4836 34.2663 79.8311 179.524 30.0034 80.2091 -21.7295 7.7279 -0.48522 74.4081 10.8991 2.64969 13.9558 -10.1551 4.85584 173.349 -3.86635 89.4375 -27.9236 -11.7225 -0.605292 69.437 -6.39177 -4.03868 33.1207 -2.29259 9.0967 1.99988 8.2013 -89.2816 10.4554 4.31327 1.04659 -1.20867 4.35514 0.855394 -23.7874 3.79913 2.29607 -3.7748 3.79914 2.29608 87.5687 -26.7999 -113.052 43.433 -2.8238 -6.78248 5.65888 -0.757739 -5.65595 -23.4856 0.96097 -10.3127 -87.2126 -59.5115 84.3672 -20.3018 5.06082 5.04792 1.37579 1.85312 -7.15507 11.4595 1.37236 7.62993 -15.6105 -2.4231 3.04096 -1.81658 -2.46421 -7.35964 
-213.764 94.2773 187.369 95.6904 29.6916 79.7173 179.346 32.2731 81.0804 -18.7329 12.9998 -0.700432 72.8623 10.2063 3.31226 13.0045 -11.5107 6.5738 171.265 -5.5828 85.1937 -34.0417 -15.6585 -2.39774 82.9522 -14.4285 -1.95731 32.668 -1.47613 1.61613 2.39945 8.18656 -89.1679 10.4794 5.16132 1.19586 -1.18163 5.20892 0.966945 -23.7802 4.56292 2.69449 -3.76752 4.56294 2.69448 87.4342 -25.6988 -113.886 44.4321 -3.8393 -9.33659 6.14973 1.18896 -2.43467 -23.9129 0.991969 -9.98167 -87.2697 -64.7856 85.008 -17.7293 2.2244 4.89249 2.92605 4.28957 -7.25592 10.1547 1.34672 8.66875 -10.3975 -2.001 7.66059 -4.64248 -2.14051 -10.5583 
-207.613 92.4621 180.966 92.2794 28.7841 83.0803 178.742 35.6213 83.4724 -22.3317 14.6619 0.328265 71.7426 8.20194 0.192762 10.5146 -13.0758 6.3882 171.85 -11.0202 85.4798 -28.8425 -12.781 -3.69048 84.2083 -14.3 0.0359452 38.5103 -3.44328 3.30105 2.55098 7.83995 -89.2003 11.1767 5.44894 1.0586 -0.483088 5.49025 0.817043 -23.092 4.87841 2.65076 -3.07934 4.87841 2.65076 87.6275 -25.1184 -113.784 46.4201 -5.35159 -10.2123 6.21001 2.10182 -2.11271 -26.7096 0.040026 -5.31044 -86.1255 -66.0555 86.6218 -15.9411 1.54489 1.63215 2.60734 10.6161 -3.97259 9.49755 1.31224 8.89574 -6.37255 -1.25694 8.38041 -8.0399 -1.43373 -9.96797 
-199.684 91.9117 173.859 92.4093 29.1206 82.0323 179.68 33.2893 81.8361 -28.3499 12.0414 0.162808 69.7482 6.33819 0.108775 5.7609 -13.985 2.13415 169.324 -16.4897 82.0688 -26.7443 -15.5472 -4.14293 72.7098 -8.96086 -4.68607 51.1425 -6.79748 7.63535 2.36413 7.5128 -88.8998 11.8204 5.21868 1.63735 0.159237 5.28568 1.4055 -22.434 4.48509 3.13237 -2.42135 4.4851 3.13236 87.8371 -25.8494 -112.983 48.8668 -7.74016 -7.96432 7.47551 -4.50167 -3.01108 -23.2284 0.563953 -9.29646 -85.371 -63.8544 87.3499 -15.6108 -1.02141 3.19541 4.30433 19.1894 -5.26098 5.43243 0.739937 7.79641 -7.9225 -0.73318 5.01438 -9.39612 -0.456096 -10.0803 
-191.73 91.5581 167.187 91.4399 29.4341 81.8311 -178.405 33.2431 80.7787 -35.8388 11.6036 -0.852446 66.2507 3.35786 0.0587183 8.86626 -12.6634 3.36555 169.121 -14.1142 79.7725 -35.8624 -15.8472 -4.97684 62.7106 -2.48072 -2.51187 42.651 -4.71803 13.8654 2.09937 7.14762 -88.4381 12.5257 4.91392 2.54965 0.862004 5.02133 2.33055 -21.7049 3.92084 3.90924 -1.69229 3.92086 3.90924 88.6844 -27.831 -110.296 50.732 -8.3194 -5.14973 7.24008 -7.20586 -4.84277 -24.0551 0.534334 -9.66309 -86.983 -59.9767 84.7413 -13.5463 -0.904566 3.51254 4.38441 20.2993 -6.01614 7.43717 1.0761 9.13581 -3.20192 -0.612355 -3.16641 -12.7979 0.477921 -7.51768 
-185.217 91.0171 161.424 93.3342 29.5245 80.8789 -175.193 30.2239 79.5483 -44.7756 12.88 -2.48537 73.3089 8.40535 0.301198 10.6087 -12.4091 5.11389 171.707 -5.88974 79.7772 -57.6936 -18.9763 -6.52665 57.719 0.986439 0.208995 22.0557 0.795321 7.9608 1.7157 7.28065 -88.3444 12.257 4.19477 2.83452 0.590154 4.31541 2.64702 -21.9543 3.14957 3.96385 -1.94161 3.14959 3.96386 88.5484 -28.4371 -110.3 49.6878 -5.6439 -3.06657 6.52686 -5.52895 -4.59807 -25.407 0.202516 -7.44426 -87.1324 -58.1864 84.2904 -9.12496 1.13227 -2.77198 2.00032 21.7403 -3.92473 10.5264 1.32128 8.07068 2.92775 -0.761169 -7.14907 -13.9575 1.04968 -5.89498 
-179.76 91.7262 155.811 96.5642 28.2788 79.1412 -174.197 21.9857 78.4475 -45.9772 12.4881 -3.13572 78.0054 12.5561 1.71224 11.2636 -11.1063 3.18371 175.124 3.87031 79.3748 -77.6559 -17.6197 -6.9178 59.9821 -0.39717 0.28026 22.5638 0.683554 7.82453 1.32474 7.51795 -88.5272 11.7967 3.32732 2.58685 0.127747 3.4379 2.43786 -22.407 2.3965 3.46684 -2.39437 2.39648 3.46684 89.5676 -26.006 -109.288 48.824 -4.05582 -2.21053 6.52258 -4.44144 -3.2535 -25.5107 0.542193 -8.83538 -85.4274 -53.4026 86.0456 -11.3749 1.82568 -8.18085 2.9019 19.5502 -5.2752 10.7211 1.16745 6.5177 2.55968 0.751372 -6.98799 -14.1111 2.47734 -5.63398 
-174.732 94.8306 150.25 97.7268 25.0295 82.6446 -173.773 12.7788 82.6352 -39.856 12.5012 -3.15041 77.291 12.0436 0.90809 12.7818 -10.2141 3.26313 179.815 15.0115 84.5498 -87.9643 -11.1295 -5.84589 60.9365 -1.40259 -2.33011 20.5544 1.27537 7.57826 1.11293 7.47982 -89.1937 11.9024 2.59312 1.33368 0.233566 2.64929 1.2182 -22.3109 2.07243 2.05146 -2.29827 2.07243 2.05145 90.2337 -25.1526 -108.262 46.7605 -2.60266 -1.99389 5.5798 -2.52364 -3.51693 -23.8803 0.52364 -8.4997 -84.9581 -49.6933 86.2637 -15.0473 -1.55977 -10.3675 6.3548 20.4677 -7.93393 10.2281 0.982186 5.33341 -5.91247 3.58278 -6.23726 -11.4265 4.47377 -3.93869 
